<svg
  id="Layer_1"
  height="512"
  viewBox="0 0 512 512"
  width="512"
  xmlns="http://www.w3.org/2000/svg"
  data-name="Layer 1"
>
  <path
    d="m41 470.25h430a41.047 41.047 0 0 0 41-41v-316a41.047 41.047 0 0 0 -41-41h-34v-14.5a16 16 0 0 0 -32 0v14.5h-133v-14.5a16 16 0 0 0 -32 0v14.5h-133v-14.5a16 16 0 0 0 -32 0v14.5h-34a41.047 41.047 0 0 0 -41 41v316a41.047 41.047 0 0 0 41 41zm430-32h-430a9.01 9.01 0 0 1 -9-9v-240.228h448v240.228a9.01 9.01 0 0 1 -9 9zm-430-334h34v14.5a16 16 0 0 0 32 0v-14.5h133v14.5a16 16 0 0 0 32 0v-14.5h133v14.5a16 16 0 0 0 32 0v-14.5h34a9.01 9.01 0 0 1 9 9v43.772h-448v-43.772a9.01 9.01 0 0 1 9-9z"
    fill="white"
    stroke="white"
    stroke-width="4"
  />
</svg>
