<svg id="_x31_" enable-background="new 0 0 24 24" height="300" viewBox="0 0 24 24" width="300" xmlns="http://www.w3.org/2000/svg" version="1.1" xmlns:xlink="http://www.w3.org/1999/xlink" xmlns:svgjs="http://svgjs.dev/svgjs"><g transform="matrix(1,0,0,1,0,0)"><path d="m18.5 24h-13c-1.379 0-2.5-1.122-2.5-2.5v-16c0-1.378 1.121-2.5 2.5-2.5h2c.276 0 .5.224.5.5s-.224.5-.5.5h-2c-.827 0-1.5.673-1.5 1.5v16c0 .827.673 1.5 1.5 1.5h13c.827 0 1.5-.673 1.5-1.5v-16c0-.827-.673-1.5-1.5-1.5h-2c-.276 0-.5-.224-.5-.5s.224-.5.5-.5h2c1.379 0 2.5 1.122 2.5 2.5v16c0 1.378-1.121 2.5-2.5 2.5z" fill="#ffffffff" data-original-color="#000000ff" stroke="none"/><path d="m15.5 6h-7c-.827 0-1.5-.673-1.5-1.5v-2c0-.276.224-.5.5-.5h2.05c.232-1.14 1.243-2 2.45-2s2.218.86 2.45 2h2.05c.276 0 .5.224.5.5v2c0 .827-.673 1.5-1.5 1.5zm-7.5-3v1.5c0 .276.225.5.5.5h7c.275 0 .5-.224.5-.5v-1.5h-2c-.276 0-.5-.224-.5-.5 0-.827-.673-1.5-1.5-1.5s-1.5.673-1.5 1.5c0 .276-.224.5-.5.5z" fill="#ffffffff" data-original-color="#000000ff" stroke="none"/><path d="m18.5 21h-13c-.276 0-.5-.224-.5-.5v-12c0-.276.224-.5.5-.5h13c.276 0 .5.224.5.5v12c0 .276-.224.5-.5.5zm-12.5-1h12v-11h-12z" fill="#ffffffff" data-original-color="#000000ff" stroke="none"/><path d="m9.5 21c-.276 0-.5-.224-.5-.5v-12c0-.276.224-.5.5-.5s.5.224.5.5v12c0 .276-.224.5-.5.5z" fill="#ffffffff" data-original-color="#000000ff" stroke="none"/><path d="m18.5 12h-13c-.276 0-.5-.224-.5-.5s.224-.5.5-.5h13c.276 0 .5.224.5.5s-.224.5-.5.5z" fill="#ffffffff" data-original-color="#000000ff" stroke="none"/><path d="m18.5 15h-13c-.276 0-.5-.224-.5-.5s.224-.5.5-.5h13c.276 0 .5.224.5.5s-.224.5-.5.5z" fill="#ffffffff" data-original-color="#000000ff" stroke="none"/><path d="m18.5 18h-13c-.276 0-.5-.224-.5-.5s.224-.5.5-.5h13c.276 0 .5.224.5.5s-.224.5-.5.5z" fill="#ffffffff" data-original-color="#000000ff" stroke="none"/></g></svg>