<svg height="300" viewBox="0 0 64 64" width="300" xmlns="http://www.w3.org/2000/svg" version="1.1" xmlns:xlink="http://www.w3.org/1999/xlink" xmlns:svgjs="http://svgjs.dev/svgjs"><g transform="matrix(1,0,0,1,0,0)"><g id="style_2"><g><g><path d="m32 28.851c-7.541 0-13.676-6.135-13.676-13.676s6.135-13.675 13.676-13.675 13.676 6.135 13.676 13.676-6.135 13.675-13.676 13.675z" fill="#ffffffff" data-original-color="#ffffffff" stroke="none"/></g><g><path d="m32 3c6.714 0 12.176 5.462 12.176 12.176s-5.462 12.176-12.176 12.176-12.176-5.462-12.176-12.176 5.462-12.176 12.176-12.176m0-3c-8.381 0-15.176 6.794-15.176 15.176 0 8.381 6.794 15.176 15.176 15.176s15.176-6.794 15.176-15.176-6.795-15.176-15.176-15.176z" fill="#ffffffff" data-original-color="#000000ff" stroke="none"/></g></g><g><g><path d="m7.323 62.494v-11.932c0-5.27 2.308-9.031 6.857-11.179 3.522-1.663 7.059-1.722 7.094-1.722h21.469c.542.012 13.935.426 13.935 12.9v11.932h-49.355z" fill="#ffffffff" data-original-color="#ffffffff" stroke="none"/></g><g><path d="m42.714 39.162c.757.017 12.463.461 12.463 11.4v10.432h-46.354v-10.432c0-4.646 1.913-7.835 5.849-9.751 3.223-1.569 6.596-1.649 6.586-1.649zm.029-3h-21.486s-15.435.173-15.435 14.4v13.438-.006h52.355c0-.083 0-1.222 0-13.432 0-14.141-15.434-14.4-15.434-14.4zm15.434 27.832v.006s0-.001 0-.006z" fill="#ffffffff" data-original-color="#000000ff" stroke="none"/></g></g></g></g></svg>